
<svg width="1440" height="800" viewBox="0 0 1440 800" xmlns="http://www.w3.org/2000/svg">
  <defs>
    <linearGradient id="grad1" x1="0%" y1="0%" x2="100%" y2="100%">
      <stop offset="0%" style="stop-color:#EEE5DA;stop-opacity:1" />
      <stop offset="100%" style="stop-color:#EEE5DA;stop-opacity:0.8" />
    </linearGradient>
    <filter id="noise" x="0%" y="0%" width="100%" height="100%">
      <feTurbulence type="fractalNoise" baseFrequency="0.5" numOctaves="2" stitchTiles="stitch" />
      <feColorMatrix type="matrix" values="1 0 0 0 0 0 1 0 0 0 0 0 1 0 0 0 0 0 0.02 0"/>
      <feComposite operator="in" in2="SourceGraphic" result="noisy"/>
    </filter>
  </defs>
  <rect width="100%" height="100%" fill="url(#grad1)" />
  <rect width="100%" height="100%" fill="url(#grad1)" filter="url(#noise)" opacity="0.4" />
  
  <!-- Grid pattern -->
  <pattern id="grid" width="60" height="60" patternUnits="userSpaceOnUse">
    <path d="M 60 0 L 0 0 0 60" fill="none" stroke="#262424" stroke-width="0.5" stroke-opacity="0.05"/>
  </pattern>
  <rect width="100%" height="100%" fill="url(#grid)" />
  
  <!-- Subtle decorative elements -->
  <g fill="#262424" fill-opacity="0.02">
    <circle cx="200" cy="200" r="150" />
    <circle cx="1100" cy="300" r="180" />
    <circle cx="400" cy="600" r="120" />
    <circle cx="1200" cy="500" r="160" />
    <circle cx="700" cy="250" r="100" />
  </g>
  
  <g fill="#F97316" fill-opacity="0.04">
    <circle cx="600" cy="300" r="80" />
    <circle cx="900" cy="400" r="60" />
    <circle cx="300" cy="400" r="40" />
    <circle cx="1300" cy="200" r="70" />
  </g>
  
  <g fill="#0EA5E9" fill-opacity="0.04">
    <circle cx="800" cy="150" r="100" />
    <circle cx="500" cy="700" r="80" />
    <circle cx="1100" cy="650" r="60" />
    <circle cx="150" cy="500" r="90" />
  </g>
  
  <!-- Abstract decorative shape -->
  <path d="M0,400 C300,320 500,500 800,380 C1100,260 1200,450 1440,380 L1440,800 L0,800 Z" fill="#262424" fill-opacity="0.02" />
</svg>
